<svg width="206" height="57" viewBox="0 0 206 57" fill="none" xmlns="http://www.w3.org/2000/svg">
<g clip-path="url(#clip0_420_1121)">
<path d="M0.841797 26.3089C0.841797 12.916 11.6989 2.05884 25.0918 2.05885L181.154 2.0589C194.953 2.05891 205.971 13.5582 205.382 27.3451L205.153 32.6883C204.594 45.7606 193.765 56.0322 180.682 55.9009L24.8484 54.3367C11.5512 54.2032 0.841797 43.3859 0.841797 30.0879V26.3089Z" fill="#FF9F0F"/>
<path d="M1.9214 22.7435C2.48933 12.2396 11.1042 3.97499 21.6227 3.84328L180.945 1.84829C193.257 1.69413 203.32 11.6323 203.32 23.9454C203.32 36.2718 193.236 46.2154 180.91 46.042L21.5918 43.8009C10.2449 43.6412 1.30873 34.075 1.9214 22.7435Z" fill="#FFCA0F"/>
<path d="M181.066 2.18408C193.219 2.09185 203.299 11.568 203.956 23.7036L204.336 30.729C205.047 43.8621 194.506 54.8596 181.354 54.7065L23.9854 52.8755C11.525 52.7304 1.5 42.5877 1.5 30.1265V26.1255C1.50004 13.6285 11.5805 3.47142 24.0771 3.37646L181.066 2.18408Z" stroke="#3E302A" stroke-width="3"/>
<path d="M197.767 27.6126C197.767 22.5408 194.873 20.3501 193.458 18.8611C193.972 21.5497 193.504 27.0829 191.24 30.0611C188.41 33.7837 182.91 36.9779 182.267 37.7225C181.624 38.467 188.597 39.341 192.328 37.2315C196.058 35.122 197.767 31.2133 197.767 27.6126Z" fill="#FFF174"/>
</g>
<defs>
<clipPath id="clip0_420_1121">
<rect y="0.508301" width="206" height="56" rx="20.9849" fill="white"/>
</clipPath>
</defs>
</svg>
