<svg width="113" height="112" viewBox="0 0 113 112" fill="none" xmlns="http://www.w3.org/2000/svg">
<circle cx="56.4089" cy="55.9431" r="55.6877" fill="#0E5AEF"/>
<ellipse cx="56.9385" cy="49.7888" rx="49.3086" ry="49.5334" fill="#428EFF"/>
<path d="M96.5932 61.5639C96.5932 50.3132 94.3616 41.6548 92.8821 38.3517C92.8821 45.0413 91.8496 51.1599 87.6163 59.0694C80.1522 73.0157 65.5136 76.6479 63.7992 83.1108C63.3374 84.8514 79.6403 85.3719 84.2374 81.575C89.1794 77.4932 96.5932 69.5513 96.5932 61.5639Z" fill="#59B9FF"/>
<path d="M71.0142 22.9155C73.3061 22.4349 76.2935 22.7722 79.1011 25.645L79.3325 25.8892C81.6541 28.4195 81.9138 31.1998 81.564 33.3159C81.3866 34.3885 81.0552 35.2922 80.771 35.9263C80.628 36.2453 80.4944 36.5021 80.3931 36.6841C80.3424 36.775 80.2992 36.8477 80.2671 36.9009C80.251 36.9275 80.2375 36.9497 80.2271 36.9663C80.2218 36.9746 80.2171 36.982 80.2134 36.9878C80.2117 36.9904 80.2098 36.9925 80.2085 36.9946C80.2078 36.9957 80.2072 36.9976 80.2065 36.9985L80.2056 36.9995L78.9468 36.1841L80.2046 37.0005L80.1147 37.1401L79.9956 37.2563L66.8315 50.1147L66.8257 50.1206L46.9272 69.3384L46.8013 69.4604L46.6499 69.5493L36.2241 75.73C31.4874 78.5378 26.0215 73.4147 28.5171 68.5063L34.1001 57.5278L34.2104 57.3091L34.3862 57.1372L54.4253 37.4604L67.228 24.6577L67.2896 24.6079L68.2319 25.7749C67.3416 24.6721 67.2936 24.6108 67.2915 24.6069L67.2954 24.603C67.2976 24.6013 67.3005 24.5993 67.3032 24.5972L67.3892 24.5308C67.4419 24.4912 67.5146 24.4387 67.605 24.3765C67.7853 24.2523 68.0399 24.088 68.3589 23.9116C68.993 23.5612 69.9074 23.1476 71.0142 22.9155Z" fill="#FFF7DB" stroke="#3E302A" stroke-width="3"/>
<path d="M64.0112 27.4131C67.5768 27.4131 77.1412 34.2674 77.283 40.7839M35.1213 57.9521L45.9106 68.6614" stroke="#3E302A" stroke-width="3"/>
<circle cx="56.4089" cy="55.9431" r="54.1877" stroke="#3E302A" stroke-width="3"/>
</svg>
